<svg xmlns="http://www.w3.org/2000/svg" viewBox="0 0 320 180" width="320" height="180" role="img" aria-label="Hoop City thumbnail">
  <defs>
    <linearGradient id="sky" x1="0" x2="0" y1="0" y2="1">
      <stop offset="0%" stop-color="#041029"/>
      <stop offset="100%" stop-color="#0a1a38"/>
    </linearGradient>
  </defs>
  <rect width="100%" height="100%" rx="12" fill="url(#sky)"/>
  <g fill="#0f223d">
    <rect x="10" y="90" width="32" height="70" rx="4"/>
    <rect x="48" y="70" width="24" height="90" rx="3"/>
    <rect x="82" y="60" width="40" height="100" rx="4"/>
    <rect x="132" y="95" width="28" height="65" rx="4"/>
    <rect x="168" y="72" width="22" height="88" rx="4"/>
    <rect x="196" y="58" width="34" height="102" rx="4"/>
    <rect x="236" y="80" width="24" height="80" rx="3"/>
    <rect x="266" y="92" width="18" height="68" rx="3"/>
  </g>
  <g transform="translate(0,6)">
    <ellipse cx="228" cy="90" rx="70" ry="26" fill="#040a16" opacity="0.55"/>
    <ellipse cx="228" cy="80" rx="64" ry="22" fill="none" stroke="#fcd34d" stroke-width="10"/>
    <ellipse cx="218" cy="72" rx="64" ry="22" fill="none" stroke="#f59e0b" stroke-width="6" opacity="0.6"/>
    <ellipse cx="240" cy="90" rx="44" ry="16" fill="none" stroke="#fff3c4" stroke-width="4" opacity="0.7"/>
  </g>
  <g transform="translate(0,-12)">
    <ellipse cx="110" cy="128" rx="26" ry="8" fill="#000" opacity="0.25"/>
    <circle cx="92" cy="108" r="32" fill="#fcc651"/>
    <circle cx="100" cy="102" r="26" fill="#f8b437"/>
    <circle cx="82" cy="96" r="14" fill="#fff4d7" opacity="0.8"/>
  </g>
</svg>
