<svg xmlns="http://www.w3.org/2000/svg" viewBox="0 0 48 48" fill="none">
  <defs>
    <linearGradient id="borderGradS" x1="0%" y1="0%" x2="100%" y2="100%">
      <stop offset="0%" stop-color="#c8ff32"/>
      <stop offset="50%" stop-color="#32d4ff"/>
      <stop offset="100%" stop-color="#ff3eb5"/>
    </linearGradient>
    <linearGradient id="fGradS" x1="0%" y1="0%" x2="100%" y2="100%">
      <stop offset="0%" stop-color="#c8ff32"/>
      <stop offset="100%" stop-color="#32d4ff"/>
    </linearGradient>
  </defs>
  
  <!-- Background rounded square -->
  <rect x="2" y="2" width="44" height="44" rx="11" fill="#1a1c23"/>
  <rect x="2" y="2" width="44" height="44" rx="11" fill="none" stroke="url(#borderGradS)" stroke-width="1.5"/>
  
  <!-- Modern F letterform -->
  <path d="M14 12h20c1.1 0 2 .9 2 2s-.9 2-2 2H18v5h12c1.1 0 2 .9 2 2s-.9 2-2 2H18v9c0 1.1-.9 2-2 2s-2-.9-2-2V14c0-1.1.9-2 2-2z" fill="url(#fGradS)"/>
  
  <!-- Accent play indicator -->
  <circle cx="34" cy="34" r="6" fill="#1a1c23" stroke="#ff3eb5" stroke-width="1.5"/>
  <path d="M32 31.5l4.5 2.5-4.5 2.5z" fill="#ff3eb5"/>
</svg>
