<svg xmlns="http://www.w3.org/2000/svg" viewBox="0 0 48 48" fill="none">
  <!-- Compact circular badge -->
  <circle cx="24" cy="24" r="22" fill="url(#smallGradient)"/>
  <circle cx="24" cy="24" r="22" stroke="url(#smallStroke)" stroke-width="2"/>
  
  <!-- Simplified F letter -->
  <g transform="translate(12, 10)">
    <path d="M5 0H19C20.5 0 21.5 1 21.5 2.5V5.5C21.5 7 20.5 8 19 8H11V12H17C18.5 12 19.5 13 19.5 14.5V17.5C19.5 19 18.5 20 17 20H11V27C11 28.5 10 29.5 8.5 29.5H5C3.5 29.5 2.5 28.5 2.5 27V2.5C2.5 1 3.5 0 5 0Z" fill="#FFF"/>
  </g>
  
  <!-- Mini accent dots -->
  <circle cx="38" cy="14" r="3" fill="#FBBF24"/>
  <circle cx="10" cy="38" r="2.5" fill="#34D399"/>
  
  <defs>
    <linearGradient id="smallGradient" x1="0%" y1="0%" x2="100%" y2="100%">
      <stop offset="0%" stop-color="#A855F7"/>
      <stop offset="50%" stop-color="#7C3AED"/>
      <stop offset="100%" stop-color="#6366F1"/>
    </linearGradient>
    <linearGradient id="smallStroke" x1="0%" y1="0%" x2="100%" y2="100%">
      <stop offset="0%" stop-color="#FBBF24"/>
      <stop offset="50%" stop-color="#F472B6"/>
      <stop offset="100%" stop-color="#60A5FA"/>
    </linearGradient>
  </defs>
</svg>
