<svg width="540" height="960" viewBox="0 0 540 960" fill="none" xmlns="http://www.w3.org/2000/svg">
  <defs>
    <linearGradient id="sky" x1="0" y1="0" x2="0" y2="960" gradientUnits="userSpaceOnUse">
      <stop offset="0" stop-color="#111827"/>
      <stop offset="0.45" stop-color="#3B0A0A"/>
      <stop offset="1" stop-color="#190B0B"/>
    </linearGradient>
    <linearGradient id="lava" x1="0" y1="760" x2="0" y2="960" gradientUnits="userSpaceOnUse">
      <stop offset="0" stop-color="#F59E0B"/>
      <stop offset="0.35" stop-color="#F97316"/>
      <stop offset="1" stop-color="#B91C1C"/>
    </linearGradient>
    <filter id="soft" x="-20%" y="-20%" width="140%" height="140%" color-interpolation-filters="sRGB">
      <feGaussianBlur stdDeviation="6"/>
    </filter>
    <filter id="boltGlow" x="-40%" y="-40%" width="180%" height="180%" color-interpolation-filters="sRGB">
      <feGaussianBlur stdDeviation="2.5" result="b"/>
      <feColorMatrix in="b" type="matrix" values="1 0 0 0 0  0 1 0 0 0  0 0 1 0 0  0 0 0 0.85 0" result="g"/>
      <feMerge>
        <feMergeNode in="g"/>
        <feMergeNode in="SourceGraphic"/>
      </feMerge>
    </filter>
  </defs>

  <!-- sky -->
  <rect width="540" height="960" fill="url(#sky)"/>

  <!-- distant haze -->
  <path d="M-10 520 C 90 470, 180 500, 270 470 C 360 440, 460 500, 560 460 L560 620 L-10 620 Z" fill="#7F1D1D" fill-opacity="0.18" filter="url(#soft)"/>

  <!-- volcano silhouettes -->
  <path d="M-40 650 L70 520 L130 590 L200 500 L265 610 L320 540 L390 610 L470 520 L600 680 L600 820 L-40 820 Z" fill="#0B1220" fill-opacity="0.9"/>
  <path d="M-40 680 L85 570 L150 635 L215 560 L285 665 L345 595 L415 670 L500 585 L600 720 L600 840 L-40 840 Z" fill="#0B1220" fill-opacity="0.78"/>

  <!-- lava lake -->
  <path d="M0 760 C 70 735, 110 790, 180 770 C 250 750, 300 805, 360 785 C 435 760, 470 815, 540 790 L540 960 L0 960 Z" fill="url(#lava)"/>

  <!-- lava ripples -->
  <path d="M0 820 C 80 790, 120 850, 200 825 C 280 800, 320 860, 400 835 C 470 815, 500 855, 540 840" stroke="#FDE68A" stroke-opacity="0.55" stroke-width="6" stroke-linecap="round"/>
  <path d="M0 875 C 70 850, 135 900, 210 882 C 285 865, 350 915, 430 895 C 490 880, 520 905, 540 898" stroke="#FB923C" stroke-opacity="0.5" stroke-width="6" stroke-linecap="round"/>

  <!-- lava glow -->
  <circle cx="90" cy="900" r="90" fill="#FDE68A" fill-opacity="0.12" filter="url(#soft)"/>
  <circle cx="460" cy="910" r="120" fill="#FB923C" fill-opacity="0.10" filter="url(#soft)"/>

  <!-- lightning bolts -->
  <path filter="url(#boltGlow)" d="M410 140 L360 230 L410 230 L350 350 L455 220 L400 220 L470 140 Z" fill="#E0F2FE" fill-opacity="0.95"/>
  <path filter="url(#boltGlow)" d="M120 190 L85 250 L120 250 L80 330 L155 240 L118 240 L150 190 Z" fill="#E0F2FE" fill-opacity="0.85"/>

  <!-- subtle foreground vignette -->
  <rect width="540" height="960" fill="#000000" fill-opacity="0.12"/>
</svg>
