<svg xmlns="http://www.w3.org/2000/svg" viewBox="0 0 256 256" width="256" height="256" role="img" aria-label="Games4James colorful logo">
  <defs>
    <radialGradient id="bg" cx="50%" cy="35%" r="80%">
      <stop offset="0%" stop-color="#ff7ab6"/>
      <stop offset="45%" stop-color="#7c3aed"/>
      <stop offset="100%" stop-color="#0ea5a0"/>
    </radialGradient>
    <linearGradient id="core" x1="0" y1="0" x2="1" y2="1">
      <stop offset="0%" stop-color="#ffd166"/>
      <stop offset="50%" stop-color="#ff6b6b"/>
      <stop offset="100%" stop-color="#6ee7b7"/>
    </linearGradient>
    <filter id="glow" x="-50%" y="-50%" width="200%" height="200%">
      <feGaussianBlur stdDeviation="6" result="b"/>
      <feMerge>
        <feMergeNode in="b"/>
        <feMergeNode in="SourceGraphic"/>
      </feMerge>
    </filter>
  </defs>

  <!-- background rounded square with vibrant radial gradient -->
  <rect width="100%" height="100%" rx="36" fill="url(#bg)" />

  <!-- colorful burst behind core emblem -->
  <g transform="translate(128,110)">
    <g fill="none" stroke="#fff" stroke-opacity="0.08" stroke-width="8" transform="scale(0.9)">
      <path d="M0,-64 L8,-16 L64,-8 L16,16 L32,64 L0,32 L-32,64 L-16,16 L-64,-8 L-8,-16 Z" />
    </g>

    <!-- glowing core circle -->
    <circle cx="0" cy="0" r="42" fill="url(#core)" filter="url(#glow)" />

    <!-- inner highlight / button dot -->
    <circle cx="0" cy="0" r="16" fill="#ffffff" opacity="0.92" />

    <!-- small accent shapes to add personality -->
    <g fill="#ffffff" opacity="0.12">
      <rect x="44" y="-6" width="8" height="12" rx="3" transform="rotate(18)" />
      <rect x="-52" y="-8" width="10" height="8" rx="2" transform="rotate(-12)" />
    </g>
  </g>

  <!-- subtle border for contrast on light tabs -->
  <rect x="2" y="2" width="252" height="252" rx="34" fill="none" stroke="#000000" stroke-opacity="0.08"/>
</svg>
