<svg width="540" height="960" viewBox="0 0 540 960" xmlns="http://www.w3.org/2000/svg">
  <defs>
    <linearGradient id="bg" x1="0%" y1="0%" x2="100%" y2="100%">
      <stop offset="0%" stop-color="#111b2c" />
      <stop offset="100%" stop-color="#030712" />
    </linearGradient>
    <linearGradient id="grid" x1="0%" y1="0%" x2="0%" y2="100%">
      <stop offset="0%" stop-color="#1f2b4b" />
      <stop offset="100%" stop-color="#111528" />
    </linearGradient>
  </defs>
  <rect width="540" height="960" fill="url(#bg)" />
  <rect x="90" y="180" width="360" height="360" rx="20" fill="url(#grid)" stroke="#2f3e63" stroke-width="8" />
  <g stroke="#25345a" stroke-width="3">
    <line x1="120" y1="180" x2="120" y2="540" />
    <line x1="180" y1="180" x2="180" y2="540" />
    <line x1="240" y1="180" x2="240" y2="540" />
    <line x1="300" y1="180" x2="300" y2="540" />
    <line x1="360" y1="180" x2="360" y2="540" />
    <line x1="420" y1="180" x2="420" y2="540" />
    <line x1="480" y1="180" x2="480" y2="540" />
    <line x1="90" y1="240" x2="450" y2="240" />
    <line x1="90" y1="300" x2="450" y2="300" />
    <line x1="90" y1="360" x2="450" y2="360" />
    <line x1="90" y1="420" x2="450" y2="420" />
    <line x1="90" y1="480" x2="450" y2="480" />
  </g>
  <g>
    <rect x="140" y="430" width="60" height="60" rx="12" fill="#ff6f61" />
    <rect x="200" y="430" width="60" height="60" rx="12" fill="#ffb347" />
    <rect x="260" y="430" width="60" height="60" rx="12" fill="#29b6f6" />
    <rect x="320" y="430" width="60" height="60" rx="12" fill="#66bb6a" />
  </g>
  <text x="270" y="640" font-family="Poppins, Arial, sans-serif" font-size="64" font-weight="700" fill="#fdfdfd" text-anchor="middle" letter-spacing="4">BLOCKER</text>
  <text x="270" y="700" font-family="Poppins, Arial, sans-serif" font-size="28" fill="#9ab0d3" text-anchor="middle">Snap blocks • Clear lines</text>
</svg>
