<svg xmlns="http://www.w3.org/2000/svg" viewBox="0 0 320 180" width="320" height="180" role="img" aria-label="Reflex Ring thumbnail">
	<rect width="100%" height="100%" rx="12" fill="#0f172a"/>
	<!-- ring -->
	<g transform="translate(90,90)">
		<circle cx="70" cy="0" r="52" fill="#111827" stroke="#0ea5a0" stroke-width="6"/>
		<!-- segments -->
		<g transform="translate(70,0)">
			<path d="M0,-42 A42 42 0 0 1 36 -18 L10 -6 A24 24 0 0 0 0 -24 Z" fill="#06b6d4"/>
			<path d="M36 -18 A42 42 0 0 1 18 36 L6 22 A24 24 0 0 0 10 -6 Z" fill="#374151"/>
			<path d="M18 36 A42 42 0 0 1 -18 36 L-6 22 A24 24 0 0 0 6 22 Z" fill="#374151"/>
			<path d="M-18 36 A42 42 0 0 1 -36 -18 L-10 -6 A24 24 0 0 0 -6 22 Z" fill="#374151"/>
			<path d="M-36 -18 A42 42 0 0 1 0 -42 L0 -24 A24 24 0 0 0 -10 -6 Z" fill="#374151"/>
		</g>
		<!-- arrow -->
		<g transform="translate(70,-80) rotate(10)">
			<polygon points="-10,20 10,20 0,-18" fill="#f59e0b" stroke="#92400e" stroke-width="2"/>
			<rect x="-3" y="20" width="6" height="36" rx="3" fill="#fbbf24"/>
		</g>
	</g>
</svg>